<svg width="157" height="32" viewBox="0 0 157 32" fill="none" xmlns="http://www.w3.org/2000/svg">
<path d="M155.121 0C154.439 0 153.86 0.475452 153.716 1.11628C153.695 1.21964 153.674 1.323 153.674 1.42636C153.674 1.44703 153.674 1.4677 153.674 1.48837L152.992 1.69509L143.752 4.4031L137.509 6.22222L131.142 8.08269L127.545 9.13695C127.483 9.03359 127.401 8.93023 127.318 8.84754C127.049 8.59948 126.698 8.43411 126.305 8.43411C125.519 8.43411 124.858 9.07493 124.858 9.88114C124.858 9.90181 124.858 9.92248 124.858 9.94315C124.858 10.0672 124.879 10.1912 124.92 10.3152L121.654 12.3618L115.142 16.4341L109.044 20.2584L107.948 20.9406L107.349 21.3127C107.266 21.23 107.163 21.1473 107.039 21.0853C106.832 20.9612 106.605 20.8992 106.357 20.8992C105.695 20.8992 105.137 21.354 104.972 21.9742C104.93 22.0982 104.91 22.2222 104.91 22.3463L104.227 22.5116L102.739 22.8837L93.106 25.2817L86.553 26.9147L79.7106 28.6305C79.6486 28.5271 79.5866 28.4238 79.4832 28.3204C79.3799 28.2171 79.2765 28.1344 79.1525 28.0517C78.9457 27.9276 78.6977 27.845 78.4496 27.845C78.4083 27.845 78.3669 27.845 78.3463 27.8656C78.2222 27.8656 78.0982 27.907 77.9742 27.9483L77.5814 27.3488L74.1912 22.2842L71.9173 18.8734L68.2377 13.354L65.5711 9.34367C65.6538 9.26098 65.7158 9.13695 65.7778 9.03359C65.8812 8.82687 65.9432 8.62015 65.9432 8.37209C65.9432 7.58656 65.323 6.94574 64.5375 6.94574H64.5168C63.7313 6.94574 63.0698 7.58656 63.0698 8.39276C63.0698 8.53747 63.0905 8.6615 63.1318 8.78553C63.1731 8.90956 63.2145 9.03359 63.2765 9.13695L62.7804 9.63307L57.9845 14.4289L51.3075 21.1059C51.2042 21.0439 51.0801 21.0026 50.9561 20.9612C50.8321 20.9199 50.708 20.8992 50.5633 20.8992C50.5427 20.8992 50.522 20.8992 50.4806 20.8992C50.2739 20.9199 50.0879 20.9612 49.9018 21.0646C49.7985 21.1266 49.6951 21.1886 49.5917 21.2713L48.9923 20.8786L41.9638 16.186L37.9742 13.5194L32.6615 9.9845L31.0078 8.88889C31.0491 8.76486 31.0698 8.64083 31.0905 8.5168C31.0905 8.47545 31.1111 8.43411 31.1111 8.41344C31.1111 7.62791 30.4703 6.96641 29.6641 6.96641C28.8992 6.96641 28.2584 7.58656 28.2377 8.33075C28.2377 8.35142 28.2377 8.37209 28.2377 8.39276C28.2377 8.49612 28.2584 8.59948 28.2791 8.70284L16.8062 14.4496C16.7855 14.4289 16.7649 14.4083 16.7442 14.3876C16.6822 14.3256 16.5995 14.2636 16.5168 14.2015C16.2894 14.0362 16 13.9535 15.7106 13.9535C15.1731 13.9535 14.6977 14.2636 14.4703 14.6977C14.4083 14.801 14.3669 14.9251 14.3256 15.0491H13.6228H8.39278H3.18348C3.14214 14.9251 3.10079 14.801 3.03878 14.6977C2.79072 14.2636 2.33594 13.9535 1.79847 13.9535C1.01294 13.9535 0.35144 14.5943 0.35144 15.4005C0.35144 16.186 0.992267 16.8475 1.79847 16.8475C2.33594 16.8475 2.81139 16.5375 3.03878 16.1034C3.10079 16 3.14214 15.876 3.18348 15.7519H7.91733H13.6228H14.3463C14.3876 15.876 14.429 16 14.491 16.1034C14.6357 16.3721 14.8631 16.5788 15.1318 16.7028C15.3178 16.7855 15.5246 16.8475 15.7313 16.8475C16.4961 16.8475 17.137 16.2274 17.1576 15.4832C17.1576 15.4625 17.1576 15.4419 17.1576 15.4212C17.1576 15.3178 17.137 15.2145 17.1163 15.1111L28.5685 9.38501C28.6512 9.48837 28.7339 9.57106 28.8372 9.63307C29.0646 9.79845 29.354 9.88114 29.6434 9.88114C29.8708 9.88114 30.0982 9.81912 30.3049 9.71576C30.4083 9.65375 30.5116 9.59173 30.615 9.50904L32.4341 10.7287L37.7881 14.3049L42.2946 17.323L48.6202 21.5401L49.199 21.9328C49.1576 22.0568 49.137 22.1809 49.1163 22.3049C49.1163 22.3463 49.0956 22.3876 49.0956 22.4083C49.0956 23.1938 49.7365 23.8553 50.5427 23.8553C50.8734 23.8553 51.1835 23.7313 51.4109 23.5452C51.7416 23.2765 51.969 22.8837 51.969 22.4083C51.969 22.2636 51.9483 22.1395 51.907 22.0155C51.8657 21.8915 51.8243 21.7674 51.7623 21.6641L57.9432 15.4832L63.2765 10.1292L63.7726 9.63307C63.876 9.69509 64 9.73643 64.1241 9.77778C64.2481 9.81912 64.3721 9.83979 64.5168 9.83979H64.5375C64.5582 9.83979 64.5995 9.83979 64.6202 9.83979C64.7442 9.83979 64.8682 9.79845 64.9923 9.75711L67.4109 13.3953L70.9664 18.7494L74.0672 23.4212L76.9819 27.8036L77.3747 28.4031C77.292 28.4858 77.23 28.6098 77.168 28.7132C77.0646 28.9199 77.0026 29.1266 77.0026 29.3747C77.0026 29.6641 77.0853 29.9121 77.23 30.1395C77.4781 30.5323 77.9328 30.8217 78.4496 30.8217C79.1111 30.8217 79.6693 30.3669 79.8346 29.7468C79.876 29.6227 79.8967 29.4987 79.8967 29.3747L86.5737 27.7003L93.1266 26.0672L102.615 23.6899L104.393 23.2351L105.096 23.0698C105.158 23.1731 105.22 23.2765 105.302 23.3798C105.571 23.6693 105.943 23.8346 106.357 23.8346C107.142 23.8346 107.804 23.1938 107.804 22.3876C107.804 22.3669 107.804 22.3463 107.804 22.3256C107.804 22.2015 107.783 22.0775 107.742 21.9535L108.341 21.5814L109.292 20.9819L115.142 17.261L121.695 13.168L125.333 10.8941C125.416 10.9767 125.519 11.0594 125.643 11.1214C125.85 11.2455 126.078 11.3075 126.326 11.3075C127.008 11.3075 127.587 10.832 127.731 10.1912C127.752 10.0879 127.773 9.9845 127.773 9.88114C127.773 9.86047 127.773 9.83979 127.773 9.81912L131.576 8.70284L137.923 6.84238L143.235 5.29199L152.744 2.50129L153.902 2.17054C153.964 2.2739 154.047 2.37726 154.129 2.45995C154.398 2.70801 154.749 2.87338 155.142 2.87338C155.928 2.87338 156.589 2.23256 156.589 1.42636C156.589 0.620155 155.928 0 155.121 0Z" fill="#5B5B5F"/>
<path d="M15.7313 13.2507C16.2894 13.2507 16.7855 13.4781 17.1576 13.8088L22.6563 6.03619V1.07495H0.599487V6.86307H14.1395L8.64083 14.677H13.7054C14.0155 13.8501 14.801 13.2507 15.7313 13.2507Z" fill="#727176"/>
<path d="M0 27.0181V32H22.6563V26.2119H8.39276L14.7183 17.261C14.2429 17.0129 13.8915 16.5995 13.7054 16.0827H7.66925L0 27.0181Z" fill="#727176"/>
<path d="M42.832 18.9768H36.4031L37.6847 14.5943L32.3101 11.0181L24.5168 31.9793H31.5039L34.2325 24.6615H44.9199L47.6279 31.9793H54.553L51.6589 24.1447C51.3282 24.3514 50.9561 24.4755 50.5426 24.4755C49.3643 24.4755 48.4134 23.5246 48.4134 22.3463C48.4134 22.1602 48.4548 21.9742 48.4961 21.8088L42.4806 17.7778L42.832 18.9768Z" fill="#727176"/>
<path d="M39.566 8.20673L41.8399 15.6693L49.3024 20.6512C49.5711 20.4445 49.9019 20.2998 50.2533 20.2377L43.1629 1.07495H36.0104L32.8063 9.67443L38.0983 13.1886L39.566 8.20673Z" fill="#727176"/>
<path d="M73.323 25.0543C72.7442 25.8191 71.9173 26.2119 70.8837 26.2119H64.5375V18.708H70.5323L66.9767 13.3747H64.5168V10.5426H64.4961C64.1654 10.5426 63.8553 10.4599 63.5659 10.3152L57.9845 15.9173V31.9793H71.1111C73.2817 31.9793 75.1214 31.4832 76.6718 30.491C76.4444 30.1602 76.3204 29.7468 76.3204 29.3127C76.3204 28.8372 76.4858 28.3824 76.7545 28.031L73.9638 23.8346C73.8191 24.2687 73.6124 24.6822 73.323 25.0543Z" fill="#727176"/>
<path d="M62.3876 8.41345C62.3876 7.23515 63.3385 6.28425 64.5168 6.28425C65.075 6.28425 65.5918 6.51164 65.9639 6.86306H69.6641C70.615 6.86306 71.3385 7.15246 71.8553 7.75195C72.3515 8.35143 72.6202 9.15763 72.6202 10.1499C72.6202 11.0801 72.3515 11.8656 71.814 12.4651C71.2765 13.0646 70.5737 13.3747 69.7261 13.3747H68.6925L72.5582 19.1835C72.8269 19.3488 73.0956 19.5556 73.323 19.8243C73.7365 20.3411 74.0052 20.9199 74.1499 21.5401L77.9535 27.2455C78.1189 27.2041 78.3049 27.1628 78.491 27.1628C78.8838 27.1628 79.2558 27.2868 79.5866 27.4729C80.4755 26.0052 80.9303 24.3514 80.9303 22.491C80.9303 21.0646 80.4341 19.6796 79.4626 18.2946C78.491 16.9096 77.0853 15.9793 75.2662 15.5039C76.6719 14.9457 77.6848 14.1395 78.3463 13.0439C78.9871 11.969 79.3179 10.8527 79.3179 9.6951C79.3179 7.02843 78.491 4.9199 76.8579 3.36952C75.2248 1.81913 73.013 1.0336 70.2636 1.0336H58.0259V13.9122L62.6357 9.30233C62.4703 9.05427 62.3876 8.7442 62.3876 8.41345Z" fill="#727176"/>
<path d="M108.465 22.3463C108.465 23.5245 107.514 24.4755 106.336 24.4755C105.592 24.4755 104.93 24.0827 104.558 23.5039L102.47 24.0207C102.326 24.3721 102.14 24.7235 101.912 25.0336C101.333 25.7985 100.506 26.1912 99.4729 26.1912H93.8088L86.5737 28.0103V31.9793H99.7003C102.636 31.9793 105.013 31.0698 106.791 29.23C108.569 27.3902 109.457 25.1576 109.457 22.5116C109.457 22.0982 109.416 21.7054 109.333 21.292L108.424 21.8708C108.444 22.0155 108.465 22.1809 108.465 22.3463Z" fill="#727176"/>
<path d="M93.106 18.708H99.3282C100.403 18.708 101.251 19.0801 101.871 19.8243C102.47 20.5685 102.78 21.416 102.78 22.3876C102.78 22.429 102.78 22.4703 102.78 22.5116L104.227 22.1396C104.331 21.0439 105.24 20.1964 106.336 20.1964C106.832 20.1964 107.308 20.3824 107.659 20.6719L108.899 19.907C108.672 19.3695 108.362 18.8321 107.99 18.2946C107.018 16.9096 105.612 15.9793 103.793 15.5039C105.199 14.9458 106.212 14.1396 106.873 13.0439C107.514 11.969 107.845 10.8527 107.845 9.69511C107.845 7.02844 107.018 4.91991 105.385 3.36952C103.752 1.83981 101.561 1.07495 98.8114 1.07495H86.5737V26.584L93.1266 24.9509V18.708H93.106ZM93.106 6.86306H98.2326C99.1835 6.86306 99.907 7.15247 100.424 7.75195C100.92 8.35144 101.189 9.15764 101.189 10.1499C101.189 11.0801 100.92 11.8656 100.382 12.4651C99.845 13.0646 99.1421 13.3747 98.2946 13.3747H93.1266V6.86306H93.106Z" fill="#727176"/>
<path d="M115.142 31.9793H121.674V13.5814L115.142 17.6744V31.9793Z" fill="#727176"/>
<path d="M121.674 1.07495H115.142V16.0207L121.674 11.9277V1.07495Z" fill="#727176"/>
<path d="M140.072 10.3152L138.088 7.15244L131.762 8.99223L136.165 15.5039L125.478 31.9793H133.189L140.072 20.7752L146.915 31.9793H154.687L143.959 15.5039L152.434 2.95605L142.946 5.72608L140.072 10.3152Z" fill="#727176"/>
<path d="M153.034 1.07495H145.86L144.062 3.94834L153.013 1.32301C153.013 1.24033 153.013 1.15764 153.034 1.07495Z" fill="#727176"/>
<path d="M134.326 1.07495H126.408L130.956 7.77263L137.323 5.91216L134.326 1.07495Z" fill="#727176"/>
</svg>
