<svg width="32" height="32" viewBox="0 0 32 32" fill="none" xmlns="http://www.w3.org/2000/svg">
<path d="M24.6854 8.229C20.1456 8.229 17.1412 11.9408 14.4907 15.2164C12.2261 18.0146 10.0876 20.6568 7.48306 20.6568C4.77583 20.6568 3.11366 17.8744 3.11366 15.8797C3.11366 14.0303 4.93709 11.3427 7.79492 11.3427C10.568 11.3427 12.0126 13.5621 12.0855 13.6758C12.5348 14.4029 13.4886 14.6316 14.2193 14.186C14.9536 13.7387 15.1862 12.7807 14.7386 12.0465C14.6436 11.891 12.3599 8.22922 7.79492 8.22922C3.20143 8.22922 0 12.2616 0 15.8799C0 19.6122 3.07319 23.7707 7.48285 23.7707C11.5726 23.7707 14.2866 20.4178 16.9108 17.1751C19.3383 14.1762 21.6314 11.3429 24.6854 11.3429C26.5025 11.3429 27.6964 11.9594 28.3346 13.2259C28.8876 14.3251 28.8872 15.5689 28.8868 15.9998C28.8868 16.2469 28.7562 17.4863 28.1516 18.6023C27.4623 19.8736 26.4837 20.4653 25.0695 20.4653C22.2217 20.4653 20.6831 18.6142 20.1037 17.917C19.9531 17.7355 19.8446 17.6049 19.6998 17.481C19.0475 16.9222 18.0642 16.9972 17.5044 17.6503C16.9646 18.2802 17.0166 19.2166 17.6063 19.7835C17.6344 19.8154 17.6682 19.8574 17.7085 19.9061C18.4636 20.8149 20.7598 23.5786 25.0689 23.5786C30.3061 23.5786 31.9998 18.4719 31.9998 15.9785C32.0002 14.3905 31.7028 12.9935 31.1149 11.8256C30.2895 10.1853 28.5035 8.229 24.6854 8.229Z" fill="#00AAC4"/>
</svg>
